<svg width="60" height="50" viewBox="0 0 60 50" fill="none" xmlns="http://www.w3.org/2000/svg">
<g clip-path="url(#clip0_89_62)">
<path d="M36.1196 44.3462H8.45369C7.91792 44.3462 7.48309 43.9154 7.48309 43.3846C7.48309 42.8539 7.91792 42.4231 8.45369 42.4231H36.1196C36.6554 42.4231 37.0902 42.8539 37.0902 43.3846C37.0902 43.9154 36.6554 44.3462 36.1196 44.3462Z" fill="#1428A0"/>
<path d="M34.0969 36.8192C33.0797 36.8192 32.0431 36.6211 31.3229 36.2884C31.1307 36.2038 30.0961 35.875 29.6379 35.7327C29.1798 35.8731 28.1452 36.2019 27.951 36.2884C27.2347 36.6192 26.1962 36.8173 25.179 36.8173C22.4477 36.8173 15.8807 35.3827 13.9026 22.1C13.2834 17.9404 13.9589 14.6942 15.9117 12.4538C18.3441 9.66152 22.2032 9.0769 25.0121 9.0769C27.0794 9.0769 28.6149 9.39037 28.6809 9.40383C28.9216 9.45383 29.2711 9.48267 29.6399 9.48267C30.0087 9.48267 30.3581 9.45383 30.5988 9.40383C30.6629 9.39037 32.1984 9.0769 34.2658 9.0769C37.0747 9.0769 40.9318 9.66344 43.3642 12.4538C45.317 14.6942 45.9925 17.9384 45.3733 22.1C43.3952 35.3827 36.8301 36.8173 34.0969 36.8173V36.8192ZM29.7894 33.7942C30.3329 33.8788 32.0664 34.5115 32.1421 34.5461C32.4915 34.7077 33.2136 34.8961 34.0949 34.8961C36.3234 34.8961 41.6928 33.6231 43.4496 21.8211C43.9834 18.2384 43.4593 15.5115 41.8908 13.7134C39.9379 11.4731 36.6631 11.0019 34.2599 11.0019C32.4042 11.0019 31.0026 11.2846 30.989 11.2884C30.6182 11.3654 30.1368 11.4077 29.6341 11.4077C29.1313 11.4077 28.6499 11.3654 28.2791 11.2884C28.2655 11.2865 26.862 11.0019 25.0082 11.0019C22.605 11.0019 19.3302 11.4731 17.3773 13.7134C15.8108 15.5115 15.2867 18.2404 15.8186 21.8231C17.5753 33.625 22.9466 34.8981 25.1751 34.8981C26.0564 34.8981 26.7611 34.7173 27.128 34.5481C27.2095 34.5115 29.1934 33.7865 29.5758 33.7865C29.5836 33.7865 29.5914 33.7865 29.5972 33.7865C29.6282 33.7865 29.6554 33.7865 29.6845 33.7865C29.6845 33.7865 29.6845 33.7865 29.6865 33.7865C29.7059 33.7865 29.7292 33.7865 29.7583 33.7923C29.7797 33.7942 29.7991 33.7981 29.8204 33.8C29.8088 33.8 29.7971 33.7961 29.7855 33.7942H29.7894Z" fill="#1428A0"/>
<path d="M29.636 12.7596C29.1896 12.7596 28.7877 12.4519 28.6887 12.0019C27.5706 6.9096 31.4006 3.67499 31.5636 3.54037C31.9752 3.19999 32.5867 3.25576 32.9302 3.66345C33.2738 4.07114 33.2175 4.67691 32.806 5.0173C32.6818 5.12114 29.7214 7.6596 30.5853 11.5923C30.6998 12.1115 30.3679 12.6231 29.8437 12.7365C29.7739 12.7519 29.704 12.7596 29.636 12.7596Z" fill="black"/>
<path d="M28.1568 7.14231C25.3227 7.14231 22.6186 5.71923 22.0032 3.90192C21.6227 2.78462 22.0517 1.65769 23.1796 0.809615C23.8939 0.271154 24.6821 0 25.5207 0C28.8692 0 31.6762 4.39038 31.9848 4.89231C32.2624 5.34231 32.1227 5.92885 31.6723 6.20962C30.6881 6.82115 29.4729 7.14423 28.1568 7.14423V7.14231ZM25.5207 1.92308C25.1091 1.92308 24.7267 2.05962 24.3521 2.34231C23.6901 2.84038 23.8008 3.16538 23.8435 3.28846C24.1463 4.18077 26.0972 5.21923 28.1587 5.21923C28.712 5.21923 29.2342 5.14423 29.7078 4.99808C28.7256 3.70192 27.0387 1.92308 25.5226 1.92308H25.5207Z" fill="black"/>
<path d="M39.2605 50H10.2843C9.74849 50 9.31366 49.5692 9.31366 49.0384C9.31366 48.5077 9.74849 48.0769 10.2843 48.0769H39.2605C39.7963 48.0769 40.2311 48.5077 40.2311 49.0384C40.2311 49.5692 39.7963 50 39.2605 50Z" fill="black"/>
<path d="M9.60482 49.9999C9.35828 49.9999 9.10981 49.9076 8.92151 49.7211C6.84249 47.6788 5.79036 44.973 6.03495 42.2961C6.24072 40.0538 7.34138 38.1018 9.05546 36.9384C9.49805 36.6384 10.1018 36.7499 10.4046 37.1884C10.7074 37.6268 10.5948 38.2249 10.1522 38.5249C8.91763 39.3634 8.12174 40.7999 7.96839 42.4692C7.77621 44.573 8.62063 46.7172 10.2881 48.3557C10.6686 48.7288 10.6705 49.3384 10.2939 49.7153C10.1037 49.9057 9.85523 49.9999 9.60482 49.9999Z" fill="black"/>
<path d="M53.0294 49.9999H46.7477C46.2119 49.9999 45.7771 49.5691 45.7771 49.0384C45.7771 48.5076 46.2119 48.0768 46.7477 48.0768H50.9834C49.8206 46.3287 49.2751 44.3037 49.4596 42.296C49.6653 40.0537 50.766 38.0999 52.4801 36.9364C52.9226 36.6364 53.5264 36.748 53.8292 37.1864C54.132 37.6249 54.0194 38.223 53.5768 38.523C52.3403 39.3614 51.5444 40.7999 51.393 42.4691C51.2008 44.573 52.0452 46.7172 53.7127 48.3537C53.9922 48.6287 54.0757 49.0422 53.9262 49.4018C53.7768 49.7614 53.4215 49.998 53.0294 49.998V49.9999Z" fill="black"/>
<path d="M52.8566 38.6921H9.60482C9.06904 38.6921 8.63422 38.2614 8.63422 37.7306C8.63422 37.1998 9.06904 36.769 9.60482 36.769H52.8566C53.3924 36.769 53.8272 37.1998 53.8272 37.7306C53.8272 38.2614 53.3924 38.6921 52.8566 38.6921Z" fill="black"/>
</g>
<defs>
<clipPath id="clip0_89_62">
<rect width="48" height="50" fill="white" transform="translate(6)"/>
</clipPath>
</defs>
</svg>
