<svg width="60" height="50" viewBox="0 0 60 50" fill="none" xmlns="http://www.w3.org/2000/svg">
<path d="M14.9384 47.0003H8.34413C7.32062 47.0003 6.48853 46.1686 6.48853 45.1456V21.1659C6.48853 20.752 6.48853 20.2835 10.6275 16.088C11.0064 15.7034 11.6237 15.6995 12.0085 16.0783C12.3933 16.457 12.3972 17.0739 12.0182 17.4585C10.5494 18.9481 8.84417 20.7871 8.44179 21.3787V45.048H14.9384C15.4775 45.048 15.915 45.4853 15.915 46.0241C15.915 46.563 15.4775 47.0003 14.9384 47.0003Z" fill="black"/>
<path d="M50.5349 47.0003H25.3787C24.8396 47.0003 24.4021 46.5629 24.4021 46.0241C24.4021 45.4853 24.8396 45.048 25.3787 45.048H50.4372V21.3806C50.0309 20.7871 48.3179 18.95 46.8432 17.4605C46.4643 17.0778 46.4662 16.4589 46.8491 16.0802C47.2319 15.6995 47.8511 15.7034 48.23 16.0861C52.3905 20.2815 52.3905 20.752 52.3905 21.1659V45.1456C52.3905 46.1686 51.5584 47.0003 50.5349 47.0003Z" fill="black"/>
<path d="M39.5529 33.4943H19.3248C18.563 33.4943 17.6684 33.1136 17.1957 32.5904L7.26142 21.5815C6.90006 21.1813 6.93132 20.5644 7.33174 20.2032C7.73216 19.8421 8.34939 19.8733 8.71074 20.2735L18.6451 31.2804C18.7349 31.378 19.0904 31.5401 19.3229 31.5401H39.5509C39.7853 31.5401 40.1388 31.378 40.2287 31.2804L50.3368 20.0783C50.6982 19.6781 51.3154 19.6468 51.7159 20.008C52.1163 20.3692 52.1475 20.9861 51.7862 21.3863L41.678 32.5884C41.2053 33.1116 40.3107 33.4923 39.5489 33.4923L39.5529 33.4943Z" fill="black"/>
<path d="M47.1887 25.888C46.6496 25.888 46.2121 25.4507 46.2121 24.9118V3.95617C46.2121 3.95617 46.2004 3.95032 46.1847 3.95032H12.694C12.6725 3.95032 12.6627 3.96398 12.6627 3.96398L12.6178 24.8494C12.6178 25.3882 12.1803 25.8235 11.6412 25.8235H11.6392C11.1001 25.8235 10.6646 25.3843 10.6646 24.8455L10.7134 3.95032C10.7134 2.87657 11.6021 2 12.694 2H46.1847C47.2766 2 48.1653 2.87657 48.1653 3.95227V24.9138C48.1653 25.4526 47.7278 25.8899 47.1887 25.8899V25.888Z" fill="black"/>
<path d="M40.2387 11.1915H36.8244C36.2853 11.1915 35.8478 10.7542 35.8478 10.2154C35.8478 9.67657 36.2853 9.23926 36.8244 9.23926H40.2387C40.7778 9.23926 41.2154 9.67657 41.2154 10.2154C41.2154 10.7542 40.7778 11.1915 40.2387 11.1915Z" fill="#1428A0"/>
<path d="M30.2661 11.1915H18.5562C18.0171 11.1915 17.5796 10.7542 17.5796 10.2154C17.5796 9.67657 18.0171 9.23926 18.5562 9.23926H30.2661C30.8052 9.23926 31.2427 9.67657 31.2427 10.2154C31.2427 10.7542 30.8052 11.1915 30.2661 11.1915Z" fill="#1428A0"/>
<path d="M40.2395 16.6442H18.5562C18.0171 16.6442 17.5796 16.2069 17.5796 15.668C17.5796 15.1292 18.0171 14.6919 18.5562 14.6919H40.2395C40.7786 14.6919 41.2161 15.1292 41.2161 15.668C41.2161 16.2069 40.7786 16.6442 40.2395 16.6442Z" fill="#1428A0"/>
<path d="M40.2395 22.0966H18.5562C18.0171 22.0966 17.5796 21.6592 17.5796 21.1204C17.5796 20.5816 18.0171 20.1443 18.5562 20.1443H40.2395C40.7786 20.1443 41.2161 20.5816 41.2161 21.1204C41.2161 21.6592 40.7786 22.0966 40.2395 22.0966Z" fill="#1428A0"/>
<path d="M40.2395 27.5494H18.5562C18.0171 27.5494 17.5796 27.1121 17.5796 26.5733C17.5796 26.0345 18.0171 25.5972 18.5562 25.5972H40.2395C40.7786 25.5972 41.2161 26.0345 41.2161 26.5733C41.2161 27.1121 40.7786 27.5494 40.2395 27.5494Z" fill="#1428A0"/>
</svg>
