<svg width="60" height="50" viewBox="0 0 60 50" fill="none" xmlns="http://www.w3.org/2000/svg">
<path d="M53.968 31.4679H40.0721C39.5297 31.4679 39.0894 31.0303 39.0894 30.4912C39.0894 29.952 39.5297 29.5144 40.0721 29.5144H52.9854V3.95346H27.1843V7.64158C27.1843 8.18074 26.7441 8.61831 26.2017 8.61831C25.6593 8.61831 25.2191 8.18074 25.2191 7.64158V2.97673C25.2191 2.43757 25.6593 2 26.2017 2H53.968C54.5104 2 54.9506 2.43757 54.9506 2.97673V30.4912C54.9506 31.0303 54.5104 31.4679 53.968 31.4679Z" fill="black"/>
<path d="M28.4492 48.0004H5.33258C4.79018 48.0004 4.34998 47.5629 4.34998 47.0237V10.5351C4.34998 9.99592 4.79018 9.55835 5.33258 9.55835H37.1119C37.6543 9.55835 38.0945 9.99592 38.0945 10.5351V37.3521C38.0945 37.5924 38.006 37.8229 37.8449 38.0026L29.1823 47.6723C28.9956 47.8813 28.7283 47.9985 28.4492 47.9985V48.0004ZM6.31518 46.047H28.0071L36.1273 36.981V11.5118H6.31518V46.047Z" fill="black"/>
<path d="M28.4487 47.9998C28.3308 47.9998 28.2129 47.9783 28.0989 47.9353C27.7177 47.7908 27.4661 47.4274 27.4661 47.0231V37.3534C27.4661 36.8143 27.9063 36.3767 28.4487 36.3767H37.1113C37.4985 36.3767 37.8503 36.6033 38.0075 36.953C38.1666 37.3046 38.1018 37.7148 37.8444 38.002L29.1817 47.6716C28.9911 47.8845 28.7219 47.9978 28.4468 47.9978L28.4487 47.9998ZM29.4313 38.3302V44.4582L34.9201 38.3302H29.4313Z" fill="black"/>
<path d="M30.4674 21.8238H11.9748C11.4325 21.8238 10.9922 21.3862 10.9922 20.8471C10.9922 20.3079 11.4325 19.8704 11.9748 19.8704H30.4674C31.0098 19.8704 31.45 20.3079 31.45 20.8471C31.45 21.3862 31.0098 21.8238 30.4674 21.8238Z" fill="#1428A0"/>
<path d="M30.4674 28.442H11.9748C11.4325 28.442 10.9922 28.0044 10.9922 27.4653C10.9922 26.9261 11.4325 26.4885 11.9748 26.4885H30.4674C31.0098 26.4885 31.45 26.9261 31.45 27.4653C31.45 28.0044 31.0098 28.442 30.4674 28.442Z" fill="#1428A0"/>
<path d="M23.9311 34.9351H11.9748C11.4325 34.9351 10.9922 34.4976 10.9922 33.9584C10.9922 33.4193 11.4325 32.9817 11.9748 32.9817H23.9311C24.4735 32.9817 24.9137 33.4193 24.9137 33.9584C24.9137 34.4976 24.4735 34.9351 23.9311 34.9351Z" fill="#1428A0"/>
</svg>
