<svg width="60" height="50" viewBox="0 0 60 50" fill="none" xmlns="http://www.w3.org/2000/svg">
<path d="M13.9919 33.4963C13.5372 33.4963 13.1249 33.1886 13.0117 32.7302L11.3868 26.1515C11.2534 25.6127 11.5849 25.0678 12.1265 24.9351C12.6681 24.8024 13.2158 25.1322 13.3492 25.671L14.9741 32.2497C15.1075 32.7885 14.776 33.3334 14.2344 33.4661C14.1536 33.4862 14.0727 33.4963 13.9919 33.4963Z" fill="black"/>
<path d="M36.623 25.0254C36.0895 25.0254 35.6428 24.6092 35.6145 24.0743C35.5842 23.5194 36.0127 23.0469 36.5705 23.0168C36.5947 23.0168 36.6129 23.0148 36.6271 23.0127L36.6452 23.0067C36.6917 22.9946 36.7483 22.9786 36.8251 22.9585C38.5733 22.5322 39.5454 20.3648 38.9937 18.127C38.7168 17.0071 38.1064 16.05 37.2758 15.4308C36.5038 14.8557 35.6327 14.6486 34.8223 14.8457C34.2807 14.9784 33.733 14.6486 33.5996 14.1098C33.4662 13.571 33.7976 13.0261 34.3393 12.8934C35.7479 12.5496 37.2212 12.8793 38.4864 13.8223C39.6909 14.721 40.568 16.0802 40.9561 17.6485C41.7726 20.9619 40.1355 24.2191 37.3061 24.9107C37.2576 24.9228 37.2233 24.9329 37.195 24.9409C37.0515 24.9811 36.9302 25.0113 36.6796 25.0254C36.6614 25.0254 36.6432 25.0254 36.625 25.0254H36.623Z" fill="#1428A0"/>
<path d="M6.77247 36.0276C5.81047 36.0276 4.96973 35.34 4.72721 34.3568L1.06715 19.5266C0.933763 18.9878 1.00046 18.4268 1.2551 17.9483C1.52592 17.4396 1.99479 17.0717 2.53845 16.939L7.99518 15.6059C8.31653 15.5275 8.65808 15.5356 8.96729 15.616C9.16333 15.3606 9.41191 15.1556 9.70092 15.0249L30.8751 5.44638C31.1055 5.34183 31.348 5.28955 31.5966 5.28955C32.4616 5.28955 33.1952 5.91686 33.4256 6.85179L39.3067 30.6794C39.4603 31.3067 39.3492 31.934 39.0016 32.4045C38.6944 32.8187 38.2194 33.072 37.7 33.1002L14.4725 34.3669C14.0057 34.393 13.1892 34.5156 12.69 34.6383L7.23326 35.9713C7.08169 36.0075 6.92607 36.0276 6.77045 36.0276H6.77247ZM3.0437 18.8872C3.02955 18.9114 3.01136 18.9697 3.02955 19.0481L6.68961 33.8783C6.70982 33.9607 6.75428 34.0009 6.77651 34.015L12.209 32.688C12.8274 32.5372 13.7733 32.3945 14.3614 32.3623L37.3302 31.1097L31.4753 7.38661L10.5599 16.8485C10.5174 16.9028 10.4628 17.0656 10.5012 17.2245C10.5215 17.3049 10.5316 17.3853 10.5316 17.4657C10.5316 17.9181 10.2223 18.3283 9.76155 18.4409C9.21992 18.5736 8.67222 18.2439 8.53884 17.705C8.51863 17.6266 8.47416 17.5844 8.45193 17.5683L3.04168 18.8893L3.0437 18.8872Z" fill="black"/>
<path d="M45.7839 26.4109C45.4605 26.4109 45.1412 26.2561 44.9472 25.9686C44.6339 25.5081 44.7552 24.8849 45.218 24.5732C47.8311 22.8119 48.8477 19.0038 47.6937 15.3104C46.6973 12.1256 44.2762 9.72291 41.5236 9.18809C40.9759 9.08153 40.6181 8.55274 40.7253 8.00787C40.8324 7.463 41.3639 7.10712 41.9116 7.21368C45.3837 7.88723 48.4112 10.8308 49.6238 14.7112C51.0405 19.2431 49.6945 23.9821 46.3518 26.236C46.1779 26.3526 45.9819 26.4089 45.7859 26.4089L45.7839 26.4109Z" fill="#1428A0"/>
<path d="M52.1622 30.5827C51.8389 30.5827 51.5195 30.4279 51.3255 30.1404C51.0123 29.68 51.1335 29.0547 51.5943 28.745C56.0022 25.7754 57.7321 19.3897 55.8021 13.2192C54.1408 7.90718 50.0765 3.89201 45.4484 2.99327C44.9007 2.88671 44.543 2.35792 44.6501 1.81305C44.7572 1.26817 45.2888 0.912296 45.8365 1.01886C51.1841 2.05834 55.8526 6.61235 57.7321 12.62C59.9249 19.629 57.8675 26.9435 52.7281 30.4078C52.5543 30.5244 52.3562 30.5807 52.1622 30.5807V30.5827Z" fill="#1428A0"/>
<path d="M13.8156 49.0002C13.3609 49.0002 12.9486 48.6926 12.8355 48.2342L9.42196 34.4032C9.28858 33.8644 9.62002 33.3195 10.1617 33.1868C10.7033 33.0541 11.251 33.3839 11.3844 33.9227L14.7979 47.7536C14.9312 48.2925 14.5998 48.8373 14.0582 48.97C13.9773 48.9901 13.8965 49.0002 13.8156 49.0002Z" fill="black"/>
</svg>
