<svg width="16" height="16" viewBox="0 0 16 16" fill="none" xmlns="http://www.w3.org/2000/svg">
<path id="search" fill-rule="evenodd" clip-rule="evenodd" d="M11.9838 6.8476C11.9838 7.52209 11.851 8.18999 11.5928 8.81314C11.3347 9.4363 10.9563 10.0025 10.4795 10.4795C10.0025 10.9563 9.43629 11.3347 8.81313 11.5929C8.18999 11.851 7.5221 11.9838 6.8476 11.9838C6.1731 11.9838 5.50521 11.851 4.88205 11.5929C4.25891 11.3347 3.69269 10.9563 3.21576 10.4795C2.73881 10.0025 2.36049 9.4363 2.10237 8.81314C1.84424 8.18999 1.7114 7.52209 1.7114 6.8476C1.7114 5.48539 2.25253 4.17898 3.21576 3.21576C4.17898 2.25253 5.48539 1.7114 6.8476 1.7114C8.2098 1.7114 9.51621 2.25253 10.4795 3.21576C11.4427 4.17898 11.9838 5.48539 11.9838 6.8476ZM11.0479 12.2577C9.6718 13.3261 7.94032 13.8298 6.20592 13.6663C4.47151 13.503 2.86458 12.6847 1.71225 11.3782C0.559918 10.0717 -0.0511754 8.3751 0.00335965 6.63388C0.0579061 4.89265 0.773984 3.23765 2.00582 2.00582C3.23766 0.773985 4.89265 0.0579065 6.63388 0.00336004C8.3751 -0.0511785 10.0717 0.559919 11.3782 1.71226C12.6847 2.86458 13.503 4.47152 13.6663 6.20592C13.8298 7.94032 13.3261 9.6718 12.2577 11.0479L15.7275 14.5177C15.8117 14.5961 15.8791 14.6906 15.9259 14.7956C15.9727 14.9006 15.9978 15.0139 15.9999 15.1289C16.0019 15.2438 15.9807 15.358 15.9377 15.4646C15.8946 15.5712 15.8305 15.668 15.7492 15.7492C15.668 15.8306 15.5712 15.8946 15.4646 15.9377C15.358 15.9807 15.2438 16.0019 15.1289 15.9999C15.0139 15.9978 14.9005 15.9727 14.7956 15.9259C14.6906 15.8791 14.5961 15.8117 14.5177 15.7275L11.0479 12.2577Z" fill="black"/>
</svg>
