<svg width="90" height="60" viewBox="0 0 90 60" fill="none" xmlns="http://www.w3.org/2000/svg">
<path fill-rule="evenodd" clip-rule="evenodd" d="M42.1825 13.1649L30.4144 22.5793H21V36.701H30.4144L42.1825 46.1154V13.1649V13.1649Z" stroke="black" stroke-width="2.2" stroke-linecap="round" stroke-linejoin="round"/>
<path d="M61.955 12.2223C61.5255 11.7927 60.829 11.7926 60.3993 12.2221C59.9697 12.6516 59.9696 13.3481 60.3991 13.7777L61.955 12.2223ZM60.3991 45.5023C59.9696 45.9319 59.9697 46.6284 60.3993 47.0579C60.829 47.4874 61.5255 47.4873 61.955 47.0577L60.3991 45.5023ZM53.6461 20.5306C53.2166 20.101 52.5201 20.1009 52.0905 20.5304C51.6608 20.9599 51.6607 21.6564 52.0902 22.086L53.6461 20.5306ZM52.0902 37.1706C51.6607 37.6002 51.6608 38.2967 52.0905 38.7262C52.5201 39.1557 53.2166 39.1556 53.6461 38.726L52.0902 37.1706ZM60.3991 13.7777C69.1577 22.539 69.1577 36.741 60.3991 45.5023L61.955 47.0577C71.5725 37.4373 71.5725 21.8427 61.955 12.2223L60.3991 13.7777ZM52.0902 22.086C56.2548 26.2519 56.2548 33.0047 52.0902 37.1706L53.6461 38.726C58.6695 33.701 58.6695 25.5556 53.6461 20.5306L52.0902 22.086Z" fill="#1428A0"/>
</svg>
